<svg width="192" height="111" viewBox="0 0 192 111" fill="none" xmlns="http://www.w3.org/2000/svg">
<g filter="url(#filter0_d_254:1008)">
<rect x="20" y="20" width="151.551" height="70.8926" rx="26.3088" fill="#413E33"/>
<circle cx="37.18" cy="79.4994" r="4.15952" fill="#FFF500"/>
<rect x="42.0625" y="63.4209" width="3.97867" height="20.255" rx="1.98933" fill="#FFF500"/>
<rect x="61.7236" y="68.3662" width="3.97867" height="14.9291" transform="rotate(34.4638 61.7236 68.3662)" fill="#FFF500"/>
<rect x="74.3125" y="81.6235" width="4.92721" height="19.0785" rx="2.4636" transform="rotate(143 74.3125 81.6235)" fill="#FFF500"/>
<rect x="60.9307" y="67.7749" width="3.97867" height="14.392" transform="rotate(43.056 60.9307 67.7749)" fill="#FFF500"/>
<rect x="43.5098" y="83.6763" width="7.59564" height="11.5743" rx="0.723394" transform="rotate(-90 43.5098 83.6763)" fill="#FFF500"/>
<path d="M54.541 83.2971C55.6297 83.3361 56.0169 83.1611 56.3495 82.5737" stroke="#FFF500" stroke-width="0.723394"/>
<path d="M54.784 81.7881C54.6902 81.7677 54.5934 81.7731 54.4995 81.7555C54.4778 81.7514 54.542 81.7432 54.5636 81.7385C54.6481 81.7204 54.7327 81.6991 54.8185 81.6877C54.8331 81.6857 54.877 81.6822 54.8623 81.6827C54.8191 81.6839 54.7746 81.6959 54.7322 81.7034C54.6846 81.7118 54.6323 81.7173 54.5878 81.7373C54.5814 81.7402 54.5638 81.7498 54.562 81.7596C54.5572 81.7857 54.5979 81.8257 54.6105 81.8401C54.7058 81.9488 54.8299 82.0265 54.9234 82.1373C54.9768 82.2006 55.0471 82.279 55.0002 82.3648C54.9979 82.3689 54.9438 82.4362 54.9513 82.4403C54.9587 82.4442 54.9878 82.4296 54.9983 82.4296C55.0165 82.4296 54.9619 82.4269 54.9438 82.4249C54.9011 82.4201 54.8585 82.4141 54.8159 82.4089C54.7959 82.4065 54.7747 82.403 54.7545 82.4043C54.7434 82.4051 54.783 82.4335 54.7834 82.4337C54.8424 82.4688 54.9181 82.4736 54.9843 82.4833C55.0778 82.4969 55.1714 82.5087 55.2653 82.5183C55.3037 82.5222 55.3429 82.5283 55.3816 82.5277C55.4069 82.5273 55.4288 82.5199 55.4524 82.5122C55.4792 82.5034 55.4992 82.4939 55.5102 82.4668C55.5242 82.4323 55.5264 82.3907 55.5441 82.358C55.5545 82.3389 55.5634 82.3424 55.5791 82.3528C55.6033 82.3688 55.6268 82.3865 55.6515 82.4013" stroke="#FFF500" stroke-width="1.08509" stroke-linecap="round"/>
<circle r="3.97867" transform="matrix(-1 0 0 1 56.5038 50.3825)" fill="#FFF500"/>
<rect width="2.89358" height="10.1275" rx="1.44679" transform="matrix(-1 0 0 1 45.291 51.8291)" fill="#FFF500"/>
<rect width="3.2251" height="9.26689" rx="1.61255" transform="matrix(-0.5041 -0.863645 -0.863645 0.5041 51.4395 50.9009)" fill="#FFF500"/>
<rect width="5.06376" height="18.8082" rx="2.35103" transform="matrix(-1 0 0 1 45.291 28.0215)" fill="#FFF500"/>
<rect width="4.55599" height="13.7042" rx="2.24079" transform="matrix(-0.507548 0.861624 0.861624 0.507548 42.2373 27.2339)" fill="#FFF500"/>
<ellipse rx="3.25527" ry="2.89358" transform="matrix(-1 0 0 1 43.8443 42.8511)" fill="#FFF500"/>
<rect width="12.5073" height="6.49994" rx="2.53188" transform="matrix(-0.788023 -0.615645 -0.615645 0.788023 53.3877 47.8096)" fill="#FFF500"/>
<path d="M95.7187 50.8721H93.1145V46.3147H84.6507V50.8721H82.0465V37.1999C82.0465 36.5706 82.2635 36.0389 82.6976 35.6048C83.1533 35.1491 83.6959 34.9212 84.3252 34.9212H95.7187V50.8721ZM93.1145 44.036V37.1999H84.6507V45.9892L86.6039 44.036H93.1145ZM115.075 48.5934C115.075 49.2227 114.847 49.7653 114.391 50.221C113.957 50.6551 113.426 50.8721 112.796 50.8721H103.681C103.052 50.8721 102.509 50.6551 102.054 50.221C101.62 49.7653 101.403 49.2227 101.403 48.5934V37.1999C101.403 36.5706 101.62 36.0389 102.054 35.6048C102.509 35.1491 103.052 34.9212 103.681 34.9212H112.796C113.426 34.9212 113.957 35.1491 114.391 35.6048C114.847 36.0389 115.075 36.5706 115.075 37.1999V39.4786H112.471V37.1999H104.007V48.5934H112.471V46.3147H115.075V48.5934ZM133.969 50.8721H130.649L123.878 44.036H131.04V37.1999H122.576V50.8721H119.972V39.4461L122.25 37.1999H119.972V34.9212H131.365C131.973 34.9212 132.505 35.1491 132.96 35.6048C133.416 36.0606 133.644 36.5923 133.644 37.1999V43.3849C133.644 45.1211 132.884 45.9892 131.365 45.9892H129.412V46.3472L133.969 50.8721ZM152.205 48.5934C152.205 49.2227 151.977 49.7653 151.522 50.221C151.088 50.6551 150.556 50.8721 149.927 50.8721H140.812C140.182 50.8721 139.64 50.6551 139.184 50.221C138.75 49.7653 138.533 49.2227 138.533 48.5934V37.1999C138.533 36.5706 138.75 36.0389 139.184 35.6048C139.64 35.1491 140.182 34.9212 140.812 34.9212H149.927C150.556 34.9212 151.088 35.1491 151.522 35.6048C151.977 36.0389 152.205 36.5706 152.205 37.1999V48.5934ZM149.601 48.5934V37.1999H141.137V48.5934H149.601Z" fill="#FFF500"/>
<path d="M97.9819 79.8081H95.3777V77.8549L93.4245 79.8081H86.5885C85.9808 79.8081 85.4491 79.5802 84.9934 79.1245C84.5376 78.6688 84.3098 78.1371 84.3098 77.5294V66.136C84.3098 65.5283 84.5376 64.9966 84.9934 64.5409C85.4491 64.0851 85.9808 63.8573 86.5885 63.8573H97.9819V66.136H86.914V77.5294H95.3777V72.972H91.1459L93.4245 70.6933H97.9819V79.8081ZM116.71 79.8081H114.106V75.2507H105.642V79.8081H103.038V66.136C103.038 65.5066 103.255 64.9749 103.689 64.5409C104.145 64.0851 104.687 63.8573 105.316 63.8573H116.71V79.8081ZM114.106 72.972V66.136H105.642V74.9252L107.595 72.972H114.106ZM138.508 79.7756H135.903V67.7961L136.88 66.1685H135.415L131.411 75.2507H129.523L125.649 66.1685H124.184L125.161 67.7961V79.7756H122.557V63.8573H127.212L130.434 71.4746H130.76L133.983 63.8573H138.508V79.7756ZM155.758 79.8081H144.364V68.4146L146.643 66.136H144.364V63.8573H155.758V66.136H146.969V72.6465L148.922 70.6933H155.758V72.972H146.969V77.5294H155.758V79.8081Z" fill="#FFF500"/>
</g>
<defs>
<filter id="filter0_d_254:1008" x="0.268364" y="0.268364" width="191.014" height="110.356" filterUnits="userSpaceOnUse" color-interpolation-filters="sRGB">
<feFlood flood-opacity="0" result="BackgroundImageFix"/>
<feColorMatrix in="SourceAlpha" type="matrix" values="0 0 0 0 0 0 0 0 0 0 0 0 0 0 0 0 0 0 127 0" result="hardAlpha"/>
<feOffset/>
<feGaussianBlur stdDeviation="9.86582"/>
<feComposite in2="hardAlpha" operator="out"/>
<feColorMatrix type="matrix" values="0 0 0 0 0 0 0 0 0 0 0 0 0 0 0 0 0 0 0.35 0"/>
<feBlend mode="normal" in2="BackgroundImageFix" result="effect1_dropShadow_254:1008"/>
<feBlend mode="normal" in="SourceGraphic" in2="effect1_dropShadow_254:1008" result="shape"/>
</filter>
</defs>
</svg>
